<svg>
    <symbol width="134" height="51" viewBox="0 0 134 51" fill="none" xmlns="http://www.w3.org/2000/svg" id="logo-full" >
        <path fill-rule="evenodd" clip-rule="evenodd" d="M20.916 0L35.7031 14.9364C43.8263 23.1908 43.8749 36.5549 35.7031 44.8092C27.5313 53.0636 14.3007 53.0636 6.12887 44.8092C-2.04296 36.5549 -2.04296 23.1908 6.12887 14.9364L20.916 0ZM32.4558 36.7275L31.1839 34.524C31.035 34.266 30.8023 34.0667 30.5246 33.9591C30.2468 33.8514 29.9406 33.8419 29.6567 33.9322L27.2555 34.6965C26.955 34.4757 26.6428 34.2706 26.3201 34.0837C25.9739 33.8812 25.6159 33.6996 25.2501 33.5376L24.7119 31.0776C24.6484 30.7866 24.4874 30.5259 24.2555 30.3389C24.0235 30.1519 23.7347 30.0498 23.4368 30.0495H18.6814C18.3834 30.0498 18.0946 30.1519 17.8627 30.3389C17.6308 30.5259 17.4697 30.7866 17.4063 31.0776L16.8733 33.5363C16.5257 33.6866 16.1861 33.8551 15.8555 34.0406C15.5133 34.2392 15.1814 34.4587 14.8627 34.6938L12.4627 33.9296C12.1787 33.839 11.8722 33.8483 11.5941 33.956C11.3161 34.0636 11.0832 34.2631 10.9342 34.5214L9.52718 36.959C6.76874 31.9388 7.50057 25.4987 11.7227 21.2746L20.9646 11.9393L30.2066 21.2746C34.2849 25.434 35.0434 31.7423 32.4558 36.7275ZM26.2558 42.6161C26.1407 41.4128 25.611 40.2807 24.749 39.4186C23.769 38.4386 22.4398 37.8881 21.0538 37.8881C19.6679 37.8881 18.3387 38.4386 17.3587 39.4186C16.471 40.3063 15.9357 41.4804 15.8427 42.7237C19.1588 44.1473 22.9495 44.1115 26.2558 42.6161Z" fill="#7879F1"/>
        <path d="M56.2 34V20H64.47V22.44H58.64V25.28H63.51V27.72H58.64V34H56.2Z" fill="white"/>
        <path d="M66.2 24H68.64V34H66.2V24ZM67.44 22.71C67.08 22.71 66.7767 22.5933 66.53 22.36C66.2833 22.12 66.16 21.82 66.16 21.46C66.16 21.1067 66.2833 20.81 66.53 20.57C66.7767 20.33 67.0767 20.21 67.43 20.21C67.7833 20.21 68.08 20.33 68.32 20.57C68.5667 20.81 68.69 21.1067 68.69 21.46C68.69 21.82 68.57 22.12 68.33 22.36C68.09 22.5933 67.7933 22.71 67.44 22.71Z" fill="white"/>
        <path d="M111.2 24H113.64V34H111.2V24ZM112.44 22.71C112.08 22.71 111.777 22.5933 111.53 22.36C111.283 22.12 111.16 21.82 111.16 21.46C111.16 21.1067 111.283 20.81 111.53 20.57C111.777 20.33 112.077 20.21 112.43 20.21C112.783 20.21 113.08 20.33 113.32 20.57C113.567 20.81 113.69 21.1067 113.69 21.46C113.69 21.82 113.57 22.12 113.33 22.36C113.09 22.5933 112.793 22.71 112.44 22.71Z" fill="white"/>
        <path d="M71.2 34V19H73.64V34H71.2Z" fill="white"/>
        <path d="M76.2 34V19H78.64V34H76.2Z" fill="white"/>
        <path d="M86.24 34.26C85.4667 34.26 84.7233 34.14 84.01 33.9C83.3033 33.6533 82.6833 33.3033 82.15 32.85C81.6167 32.39 81.2333 31.84 81 31.2L83.29 30.36C83.3833 30.6267 83.5733 30.87 83.86 31.09C84.1467 31.31 84.4967 31.4867 84.91 31.62C85.3233 31.7533 85.7667 31.82 86.24 31.82C86.7267 31.82 87.18 31.7467 87.6 31.6C88.0267 31.4467 88.37 31.2367 88.63 30.97C88.89 30.6967 89.02 30.38 89.02 30.02C89.02 29.6533 88.8833 29.3533 88.61 29.12C88.3367 28.88 87.9867 28.69 87.56 28.55C87.1333 28.41 86.6933 28.3033 86.24 28.23C85.2467 28.0767 84.3567 27.84 83.57 27.52C82.7833 27.2 82.16 26.7567 81.7 26.19C81.2467 25.6233 81.02 24.89 81.02 23.99C81.02 23.1433 81.2633 22.4033 81.75 21.77C82.2367 21.1367 82.8767 20.6433 83.67 20.29C84.4633 19.9367 85.32 19.76 86.24 19.76C87.0067 19.76 87.7467 19.88 88.46 20.12C89.1733 20.36 89.7967 20.71 90.33 21.17C90.87 21.63 91.2567 22.1833 91.49 22.83L89.19 23.66C89.0967 23.3933 88.9067 23.15 88.62 22.93C88.3333 22.71 87.9833 22.5367 87.57 22.41C87.1567 22.2767 86.7133 22.21 86.24 22.21C85.7667 22.2033 85.3167 22.28 84.89 22.44C84.47 22.5933 84.1267 22.8033 83.86 23.07C83.5933 23.3367 83.46 23.6433 83.46 23.99C83.46 24.4367 83.5833 24.7733 83.83 25C84.0833 25.2267 84.42 25.3933 84.84 25.5C85.26 25.6 85.7267 25.6933 86.24 25.78C87.1733 25.9267 88.0367 26.1733 88.83 26.52C89.6233 26.8667 90.26 27.33 90.74 27.91C91.22 28.4833 91.46 29.1867 91.46 30.02C91.46 30.8667 91.22 31.61 90.74 32.25C90.26 32.8833 89.6233 33.3767 88.83 33.73C88.0367 34.0833 87.1733 34.26 86.24 34.26Z" fill="white"/>
        <path d="M98.36 34H95.94L92.6 24H94.99L97.16 30.47L99.32 24H101.73L103.89 30.47L106.06 24H108.45L105.11 34H102.69L100.52 27.5L98.36 34Z" fill="white"/>
        <path d="M121.03 21.9V24H123.76V26.44H121.03V34H118.59V26.44H117.5V24H118.59V21.9C118.59 21.3267 118.73 20.8033 119.01 20.33C119.297 19.85 119.68 19.47 120.16 19.19C120.64 18.9033 121.17 18.76 121.75 18.76C122.17 18.76 122.587 18.8467 123 19.02C123.413 19.1933 123.78 19.46 124.1 19.82L122.34 21.54C122.28 21.4267 122.193 21.3433 122.08 21.29C121.973 21.23 121.863 21.2 121.75 21.2C121.557 21.2 121.387 21.27 121.24 21.41C121.1 21.5433 121.03 21.7067 121.03 21.9Z" fill="white"/>
        <path d="M132.56 26.44H130.62V34H128.18V26.44H126.7V24H128.18V20.86H130.62V24H132.56V26.44Z" fill="white"/>
    </symbol>

    <symbol width="42" height="51" viewBox="0 0 42 51" fill="none" xmlns="http://www.w3.org/2000/svg" id="logo">
        <path fill-rule="evenodd" clip-rule="evenodd" d="M20.916 0L35.7031 14.9364C43.8263 23.1908 43.8749 36.5549 35.7031 44.8092C27.5313 53.0636 14.3007 53.0636 6.12887 44.8092C-2.04296 36.5549 -2.04296 23.1908 6.12887 14.9364L20.916 0ZM32.456 36.7272L31.1843 34.5241C31.0354 34.2661 30.8027 34.0668 30.525 33.9591C30.2472 33.8515 29.941 33.842 29.6571 33.9323L27.2559 34.6965C26.9554 34.4758 26.6432 34.2706 26.3205 34.0838C25.9743 33.8813 25.6163 33.6997 25.2505 33.5377L24.7123 31.0777C24.6488 30.7866 24.4878 30.526 24.2559 30.339C24.024 30.152 23.7351 30.0499 23.4372 30.0496H18.6818C18.3839 30.0499 18.095 30.152 17.8631 30.339C17.6312 30.526 17.4701 30.7866 17.4067 31.0777L16.8737 33.5364C16.5262 33.6867 16.1865 33.8552 15.856 34.0407C15.5137 34.2393 15.1818 34.4588 14.8631 34.6939L12.4632 33.9297C12.1791 33.8391 11.8726 33.8484 11.5945 33.956C11.3165 34.0637 11.0836 34.2632 10.9346 34.5215L9.52741 36.9594C6.7687 31.9392 7.50045 25.4988 11.7227 21.2746L20.9646 11.9393L30.2066 21.2746C34.2848 25.434 35.0434 31.742 32.456 36.7272ZM26.2562 42.6159C26.1411 41.4127 25.6113 40.2807 24.7494 39.4187C23.7694 38.4387 22.4402 37.8882 21.0543 37.8882C19.6683 37.8882 18.3391 38.4387 17.3591 39.4187C16.4714 40.3064 15.9361 41.4805 15.8431 42.7239C19.1593 44.1474 22.9499 44.1114 26.2562 42.6159Z" fill="#7879F1"/>
    </symbol>


    <symbol width="22" height="14" viewBox="0 0 22 14" fill="none" xmlns="http://www.w3.org/2000/svg" id="burger">
        <path fill-rule="evenodd" clip-rule="evenodd" d="M0.5 0.875C0.5 0.391751 0.891751 0 1.375 0H20.625C21.1082 0 21.5 0.391751 21.5 0.875C21.5 1.35825 21.1082 1.75 20.625 1.75H1.375C0.891751 1.75 0.5 1.35825 0.5 0.875ZM0.5 7C0.5 6.51675 0.891751 6.125 1.375 6.125H20.625C21.1082 6.125 21.5 6.51675 21.5 7C21.5 7.48325 21.1082 7.875 20.625 7.875H1.375C0.891751 7.875 0.5 7.48325 0.5 7ZM10.125 13.125C10.125 12.6418 10.5168 12.25 11 12.25H20.625C21.1082 12.25 21.5 12.6418 21.5 13.125C21.5 13.6082 21.1082 14 20.625 14H11C10.5168 14 10.125 13.6082 10.125 13.125Z" fill="white"/>
    </symbol>

    <symbol width="83" height="83" viewBox="0 0 83 83" fill="none" xmlns="http://www.w3.org/2000/svg" id="spares">
        <rect x="0.5" y="0.5" width="82" height="82" rx="41" stroke="url(#paint0_linear_13_610)"/>
        <rect x="0.5" y="0.5" width="82" height="82" rx="41" stroke="url(#paint1_linear_13_610)"/>
        <rect x="10.5" y="10.5" width="62" height="62" rx="31" stroke="url(#paint2_linear_13_610)"/>
        <rect x="10.5" y="10.5" width="62" height="62" rx="31" stroke="url(#paint3_linear_13_610)"/>
        <g clip-path="url(#clip0_13_610)">
            <path d="M29.708 24.1025C25.9961 24.752 23.4668 28.3066 24.1025 31.9639C24.4717 34.083 25.7295 35.8398 27.623 36.8789C28.5527 37.3848 29.373 37.6035 30.5625 37.6514C31.5947 37.6924 32.1894 37.6035 33.2285 37.2549L33.8096 37.0635L35.2314 38.4785L36.6465 39.8936L38.2666 38.2666L39.8935 36.6465L38.4717 35.2246L37.0566 33.8096L37.2549 33.2285C37.6035 32.1963 37.6924 31.5947 37.6514 30.5625C37.583 29.0381 37.2002 27.9512 36.2978 26.7207C35.3955 25.5107 33.9736 24.5742 32.4424 24.1982C31.7246 24.0205 30.4326 23.9727 29.708 24.1025ZM31.8887 27.5957C32.9892 27.9785 33.8301 28.8467 34.124 29.9336C34.6299 31.752 33.5771 33.6045 31.7314 34.1445C30.9658 34.3701 29.8721 34.2266 29.1543 33.8096C28.7168 33.5566 28.1084 32.9414 27.8691 32.5107C27.6435 32.1006 27.418 31.2803 27.418 30.8496C27.418 30.4189 27.6025 29.7148 27.8349 29.2568C28.0742 28.7783 28.7578 28.0879 29.2226 27.8486C30.0635 27.418 31.0888 27.3223 31.8887 27.5957Z" fill="#A685FA"/>
            <path d="M50.9609 24.2324C48.7734 24.5879 46.873 25.9756 45.8818 27.9443C45.1435 29.4141 45.0615 31.376 45.6494 33.3174L45.8339 33.919L39.8115 39.9414L33.789 45.9639L33.1533 45.7861C32.039 45.4717 31.3076 45.376 30.3232 45.417C29.3388 45.458 28.7372 45.5947 27.9238 45.9707C25.3056 47.1875 23.6581 50.1611 24.0683 52.9707C24.1913 53.8526 24.9091 54.3106 25.6611 53.9824C25.7841 53.9277 26.6181 53.1485 27.5204 52.2393L29.1611 50.5918H30.7812H32.4081V52.2188V53.8389L30.7607 55.4795C29.8515 56.3819 29.0722 57.2158 29.0175 57.3389C28.8124 57.8174 28.9492 58.3779 29.3525 58.6856C29.9267 59.1231 31.6835 59.0889 33.0849 58.6172C34.165 58.2481 35.204 57.544 35.9902 56.6348C37.6035 54.7891 37.9931 52.6152 37.2138 49.8535L37.0361 49.211L43.0585 43.1885L49.081 37.166L49.6826 37.3506C51.1796 37.8086 52.8408 37.8633 54.0439 37.5078C56.2656 36.8447 57.9746 35.0606 58.6171 32.7363C58.9179 31.6699 58.9042 30.0772 58.5966 29.5781C58.3369 29.1611 57.708 28.9561 57.2431 29.1338C57.1406 29.168 56.2792 29.9746 55.3427 30.9111L53.6269 32.6133L52.0273 32.5996L50.4208 32.5791L50.4003 30.9727L50.3867 29.3731L52.123 27.6231C53.6269 26.1192 53.8662 25.8457 53.9072 25.6201C54.0097 25.0801 53.7636 24.5742 53.3056 24.3486C52.9228 24.1641 51.7402 24.1026 50.9609 24.2324Z" fill="#A685FA"/>
            <path d="M44.7129 44.747L43.1064 46.3534L44.5283 47.7753L45.9434 49.1904L45.7451 49.7714C45.3965 50.8036 45.3076 51.4052 45.3486 52.4374C45.4307 54.3105 46.1416 55.8896 47.4678 57.1337C50.1748 59.663 54.3584 59.5947 56.9766 56.9765C60.2236 53.7294 59.4307 48.3427 55.377 46.121C54.4473 45.6152 53.627 45.3964 52.4375 45.3486C51.4053 45.3075 50.8105 45.3964 49.7715 45.745L49.1904 45.9365L47.7891 44.5419C47.0166 43.7695 46.374 43.1406 46.3535 43.1406C46.333 43.1406 45.5947 43.8652 44.7129 44.747ZM53.0664 48.8759C54.8027 49.3544 55.9033 51.1865 55.4795 52.8818C55.3018 53.579 55.0283 54.0712 54.5498 54.5497C54.0781 55.0214 53.5791 55.3085 52.9092 55.4726C52.3623 55.6093 51.9863 55.6093 51.4258 55.4794C50.8037 55.329 50.209 55.0009 49.7715 54.5634C49.2998 54.0917 49.0332 53.6542 48.8691 53.0595C48.165 50.5165 50.5234 48.165 53.0664 48.8759Z" fill="#A685FA"/>
        </g>
        <defs>
            <linearGradient id="paint0_linear_13_610" x1="6.83232" y1="87.5549" x2="86.7957" y2="-5.56708" gradientUnits="userSpaceOnUse">
                <stop stop-color="#A685FA"/>
                <stop offset="0.323723" stop-color="#A685FA" stop-opacity="0"/>
            </linearGradient>
            <linearGradient id="paint1_linear_13_610" x1="82.747" y1="-10.628" x2="6.83232" y2="83" gradientUnits="userSpaceOnUse">
                <stop stop-color="#A685FA"/>
                <stop offset="0.576615" stop-color="#A685FA" stop-opacity="0"/>
            </linearGradient>
            <linearGradient id="paint2_linear_13_610" x1="3.14113" y1="13.5565" x2="72.746" y2="73" gradientUnits="userSpaceOnUse">
                <stop stop-color="#A685FA"/>
                <stop offset="0.323723" stop-color="#A685FA" stop-opacity="0"/>
            </linearGradient>
            <linearGradient id="paint3_linear_13_610" x1="85.4476" y1="87.2258" x2="12.2863" y2="35.4032" gradientUnits="userSpaceOnUse">
                <stop stop-color="#A685FA"/>
                <stop offset="0.576615" stop-color="#A685FA" stop-opacity="0"/>
            </linearGradient>
            <clipPath id="clip0_13_610">
                <rect width="35" height="35" fill="white" transform="translate(24 24)"/>
            </clipPath>
        </defs>
    </symbol>
    <symbol width="82" height="82" viewBox="0 0 82 82" fill="none" xmlns="http://www.w3.org/2000/svg" id="restaur">
        <rect x="0.5" y="0.5" width="81" height="81" rx="40.5" stroke="url(#paint0_linear_84_14)"/>
        <rect x="0.5" y="0.5" width="81" height="81" rx="40.5" stroke="url(#paint1_linear_84_14)"/>
        <rect x="10.5" y="10.5" width="61" height="61" rx="30.5" stroke="url(#paint2_linear_84_14)"/>
        <rect x="10.5" y="10.5" width="61" height="61" rx="30.5" stroke="url(#paint3_linear_84_14)"/>
        <path d="M49.0949 40.4007C49.7704 40.4091 50.4407 40.2813 51.0663 40.0248C51.6918 39.7683 52.26 39.3883 52.7374 38.9073L57.5096 34.1045C57.8237 33.7866 58 33.3565 58 32.9081C58 32.4598 57.8237 32.0296 57.5096 31.7117C57.3529 31.5526 57.1664 31.4264 56.9609 31.3402C56.7554 31.254 56.535 31.2097 56.3123 31.2097C56.0897 31.2097 55.8693 31.254 55.6638 31.3402C55.4583 31.4264 55.2718 31.5526 55.1151 31.7117L50.2922 36.4974C50.1354 36.6565 49.9489 36.7827 49.7434 36.8689C49.5379 36.9551 49.3175 36.9994 49.0949 36.9994C48.8723 36.9994 48.6519 36.9551 48.4464 36.8689C48.2409 36.7827 48.0544 36.6565 47.8976 36.4974L53.8672 30.5067C54.0244 30.3485 54.1491 30.1607 54.2342 29.9539C54.3193 29.7472 54.3631 29.5256 54.3631 29.3018C54.3631 29.078 54.3193 28.8565 54.2342 28.6497C54.1491 28.443 54.0244 28.2551 53.8672 28.0969C53.71 27.9387 53.5233 27.8131 53.3179 27.7275C53.1124 27.6419 52.8923 27.5978 52.6699 27.5978C52.4475 27.5978 52.2274 27.6419 52.0219 27.7275C51.8165 27.8131 51.6298 27.9387 51.4726 28.0969L45.5199 34.1045C45.2058 33.7866 45.0296 33.3565 45.0296 32.9081C45.0296 32.4598 45.2058 32.0296 45.5199 31.7117L50.2922 26.9089C50.4494 26.7507 50.5741 26.5629 50.6592 26.3561C50.7443 26.1494 50.7881 25.9278 50.7881 25.704C50.7881 25.4802 50.7443 25.2587 50.6592 25.0519C50.5741 24.8452 50.4494 24.6573 50.2922 24.4991C50.135 24.3409 49.9483 24.2153 49.7429 24.1297C49.5374 24.0441 49.3173 24 49.0949 24C48.8726 24 48.6524 24.0441 48.4469 24.1297C48.2415 24.2153 48.0549 24.3409 47.8976 24.4991L43.1253 29.3018C42.178 30.2564 41.6458 31.5504 41.6458 32.8996C41.6458 34.2488 42.178 35.5428 43.1253 36.4974L40.9331 38.6867L26.9873 24.6009L26.8187 24.4991C26.7325 24.4234 26.6359 24.3605 26.532 24.3124L26.2285 24.1936L26.0261 24.0579H25.9081H25.5708C25.4702 24.0417 25.3678 24.0417 25.2673 24.0579C25.1652 24.0952 25.0687 24.1466 24.9806 24.2106L24.7108 24.3803H24.5927L24.4915 24.55C24.4202 24.6396 24.358 24.7363 24.3061 24.8385C24.2567 24.942 24.2171 25.05 24.188 25.161C24.188 25.161 24.188 25.2798 24.188 25.3476C23.7788 28.2181 24.0397 31.145 24.95 33.8963C25.8603 36.6477 27.395 39.1477 29.4325 41.1983L33.8843 45.6616L24.7614 54.8258C24.6033 54.9836 24.4778 55.1713 24.3922 55.3781C24.3066 55.5849 24.2625 55.8067 24.2625 56.0308C24.2625 56.2548 24.3066 56.4766 24.3922 56.6834C24.4778 56.8902 24.6033 57.0779 24.7614 57.2357C24.9189 57.393 25.1058 57.5174 25.3113 57.6019C25.5167 57.6863 25.7367 57.7291 25.9586 57.7278C26.1806 57.7291 26.4006 57.6863 26.606 57.6019C26.8115 57.5174 26.9984 57.393 27.1559 57.2357L37.3919 47.0872L42.1641 42.2845L45.5368 38.8903C46.4777 39.8474 47.7571 40.3905 49.0949 40.4007ZM36.1946 43.4894L31.7596 39.0091C29.3287 36.5292 27.8066 33.2921 27.4426 29.8279L38.5892 41.0286L36.1946 43.4894ZM46.7172 44.4567C46.3997 44.1349 45.9681 43.9532 45.5175 43.9516C45.0668 43.95 44.634 44.1287 44.3142 44.4482C43.9944 44.7678 43.8139 45.2021 43.8123 45.6556C43.8107 46.1092 43.9882 46.5447 44.3058 46.8666L54.9296 57.5581C55.2517 57.8531 55.6747 58.0112 56.11 57.9994C56.3319 58.0007 56.5519 57.9579 56.7574 57.8734C56.9628 57.789 57.1497 57.6645 57.3073 57.5072C57.4653 57.3495 57.5908 57.1618 57.6764 56.955C57.762 56.7482 57.8061 56.5263 57.8061 56.3023C57.8061 56.0783 57.762 55.8565 57.6764 55.6496C57.5908 55.4428 57.4653 55.2551 57.3073 55.0974L46.7172 44.4567Z" fill="#A685FA"/>
        <defs>
            <linearGradient id="paint0_linear_84_14" x1="6.75" y1="86.5" x2="85.75" y2="-5.5" gradientUnits="userSpaceOnUse">
                <stop stop-color="#A685FA"/>
                <stop offset="0.323723" stop-color="#A685FA" stop-opacity="0"/>
            </linearGradient>
            <linearGradient id="paint1_linear_84_14" x1="81.75" y1="-10.5" x2="6.75" y2="82" gradientUnits="userSpaceOnUse">
                <stop stop-color="#A685FA"/>
                <stop offset="0.576615" stop-color="#A685FA" stop-opacity="0"/>
            </linearGradient>
            <linearGradient id="paint2_linear_84_14" x1="3.25" y1="13.5" x2="71.75" y2="72" gradientUnits="userSpaceOnUse">
                <stop stop-color="#A685FA"/>
                <stop offset="0.323723" stop-color="#A685FA" stop-opacity="0"/>
            </linearGradient>
            <linearGradient id="paint3_linear_84_14" x1="84.25" y1="86" x2="12.25" y2="35" gradientUnits="userSpaceOnUse">
                <stop stop-color="#A685FA"/>
                <stop offset="0.576615" stop-color="#A685FA" stop-opacity="0"/>
            </linearGradient>
        </defs>
    </symbol>
    <symbol width="82" height="82" viewBox="0 0 82 82" fill="none" xmlns="http://www.w3.org/2000/svg" id="auto">
        <rect x="0.5" y="0.5" width="81" height="81" rx="40.5" stroke="url(#paint0_linear_13_626)"/>
        <rect x="0.5" y="0.5" width="81" height="81" rx="40.5" stroke="url(#paint1_linear_13_626)"/>
        <rect x="10.5" y="10.5" width="61" height="61" rx="30.5" stroke="url(#paint2_linear_13_626)"/>
        <rect x="10.5" y="10.5" width="61" height="61" rx="30.5" stroke="url(#paint3_linear_13_626)"/>
        <path d="M55.9124 35.628L53.5868 27.8741C52.8915 25.5564 50.9484 24 48.7503 24H33.2497C31.0516 24 29.1085 25.5564 28.4132 27.8741L26.0876 35.628C24.8636 36.2003 24 37.5452 24 39.1111V48.5556C24 49.9779 24.7191 51.2038 25.7663 51.8479C25.7442 51.9726 25.7 52.0859 25.7 52.2162V56.1111C25.7 57.1557 26.4599 58 27.4 58H29.1C30.0401 58 30.8 57.1557 30.8 56.1111V52.3333H51.2V56.1111C51.2 57.1557 51.9599 58 52.9 58H54.6C55.5401 58 56.3 57.1557 56.3 56.1111V52.2162C56.3 52.0859 56.2558 51.9707 56.2337 51.8479C57.2809 51.2038 58 49.9779 58 48.5556V39.1111C58 37.5452 57.1364 36.2003 55.9124 35.628ZM27.4 48.5556V39.1111H54.6L54.6034 48.5556H27.4ZM33.2497 27.7778H48.7486C49.4813 27.7778 50.1307 28.2953 50.3619 29.0698L52.2421 35.3333H29.7579L31.6364 29.0698C31.8693 28.2953 32.5187 27.7778 33.2497 27.7778Z" fill="#A685FA"/>
        <path d="M31.6501 46.6667C33.0584 46.6667 34.2001 45.3981 34.2001 43.8333C34.2001 42.2685 33.0584 41 31.6501 41C30.2418 41 29.1001 42.2685 29.1001 43.8333C29.1001 45.3981 30.2418 46.6667 31.6501 46.6667Z" fill="#A685FA"/>
        <path d="M50.3498 46.6667C51.7581 46.6667 52.8998 45.3981 52.8998 43.8333C52.8998 42.2685 51.7581 41 50.3498 41C48.9415 41 47.7998 42.2685 47.7998 43.8333C47.7998 45.3981 48.9415 46.6667 50.3498 46.6667Z" fill="#A685FA"/>
        <defs>
            <linearGradient id="paint0_linear_13_626" x1="6.75" y1="86.5" x2="85.75" y2="-5.5" gradientUnits="userSpaceOnUse">
                <stop stop-color="#A685FA"/>
                <stop offset="0.323723" stop-color="#A685FA" stop-opacity="0"/>
            </linearGradient>
            <linearGradient id="paint1_linear_13_626" x1="81.75" y1="-10.5" x2="6.75" y2="82" gradientUnits="userSpaceOnUse">
                <stop stop-color="#A685FA"/>
                <stop offset="0.576615" stop-color="#A685FA" stop-opacity="0"/>
            </linearGradient>
            <linearGradient id="paint2_linear_13_626" x1="3.25" y1="13.5" x2="71.75" y2="72" gradientUnits="userSpaceOnUse">
                <stop stop-color="#A685FA"/>
                <stop offset="0.323723" stop-color="#A685FA" stop-opacity="0"/>
            </linearGradient>
            <linearGradient id="paint3_linear_13_626" x1="84.25" y1="86" x2="12.25" y2="35" gradientUnits="userSpaceOnUse">
                <stop stop-color="#A685FA"/>
                <stop offset="0.576615" stop-color="#A685FA" stop-opacity="0"/>
            </linearGradient>
        </defs>
    </symbol>
    <symbol width="82" height="82" viewBox="0 0 82 82" fill="none" xmlns="http://www.w3.org/2000/svg" id="hygiene">
        <rect x="0.5" y="0.5" width="81" height="81" rx="40.5" stroke="url(#paint0_linear_89_61)"/>
        <rect x="0.5" y="0.5" width="81" height="81" rx="40.5" stroke="url(#paint1_linear_89_61)"/>
        <rect x="10.5" y="10.5" width="61" height="61" rx="30.5" stroke="url(#paint2_linear_89_61)"/>
        <rect x="10.5" y="10.5" width="61" height="61" rx="30.5" stroke="url(#paint3_linear_89_61)"/>
        <path fill-rule="evenodd" clip-rule="evenodd" d="M53.1099 31.1363L50.9134 24L48.7169 31.1363L44.4675 33.1665L48.7356 35.2058L50.9134 41.4487L53.0912 35.2058L57.3594 33.1665L53.1099 31.1363ZM50.2769 32.4897L50.9134 30.422L51.5499 32.4897L52.9665 33.1665L51.5686 33.8344L50.9134 35.7126L50.2582 33.8344L48.8604 33.1665L50.2769 32.4897Z" fill="#A685FA"/>
        <path d="M36.2763 33.3695L37.2207 29.5796L38.165 33.3695L40.998 34.3169L38.165 35.2644L37.2207 39.0543L36.2763 35.2644L33.4434 34.3169L36.2763 33.3695Z" fill="#A685FA"/>
        <path fill-rule="evenodd" clip-rule="evenodd" d="M30.6103 55.8712V56.1051C30.6103 57.1515 29.7647 58 28.7216 58H25.8887C24.8456 58 24 57.1515 24 56.1051V45.6872C24 44.6408 24.8456 43.7923 25.8887 43.7923H28.7216C29.615 43.7923 30.3634 44.4146 30.5599 45.2507C31.8106 44.7985 33.2714 44.2603 33.7183 44.0558C34.098 43.8823 34.5363 43.8234 34.9005 43.8022C35.2836 43.7801 35.6809 43.7954 36.0286 43.8224C36.3794 43.8496 36.6977 43.8903 36.9275 43.9238C37.0429 43.9407 37.1374 43.9559 37.2039 43.9671C37.2373 43.9728 37.2637 43.9773 37.2824 43.9808L37.3046 43.9847L37.3111 43.986L37.3145 43.9865L37.3314 43.9898L43.6478 45.4114L43.6873 45.4241L43.6981 45.4274L43.7416 45.4408C43.7814 45.4528 43.8417 45.4706 43.9195 45.4922C44.0754 45.5356 44.2996 45.594 44.5668 45.6525C45.1097 45.7713 45.7936 45.8822 46.4313 45.8822C47.0205 45.8822 47.63 46.1025 47.9557 46.7012C48.2356 47.2152 48.1704 47.7796 48.0657 48.1705C47.9353 48.6569 47.6652 49.1688 47.3218 49.6037C47.7852 49.4283 48.2917 49.2206 48.8355 48.9969L48.9517 48.9489C50.4844 48.3179 52.3017 47.5696 53.9047 47.3036C55.7364 46.9996 57.0696 47.6667 57.674 48.8503C58.212 49.9038 58.087 51.2865 57.2774 52.1196C57.0742 52.3287 56.7645 52.5481 56.4535 52.7504C56.1215 52.9665 55.7125 53.2106 55.2581 53.4692C54.348 53.9872 53.2213 54.5826 52.0901 55.1582C49.8502 56.298 47.5022 57.4064 46.7561 57.6805C45.8915 57.9983 44.9627 58.0283 44.0696 57.9822C43.583 57.9571 43.0179 57.9007 42.4561 57.8446C42.0502 57.8042 41.6462 57.7638 41.275 57.7357C39.4546 57.5972 38.0573 57.1514 36.7703 56.7408L36.6138 56.6909C35.2846 56.2675 34.048 55.8921 32.4096 55.8258C32.035 55.8107 31.287 55.8383 30.6103 55.8712ZM34.5017 45.7801C34.5622 45.7524 34.7227 45.7107 35.0094 45.6941C35.2772 45.6785 35.5828 45.6884 35.8829 45.7117C36.18 45.7348 36.4546 45.7697 36.6557 45.7989C36.7556 45.8135 36.8361 45.8266 36.8906 45.8358C36.9179 45.8404 36.9385 45.844 36.9518 45.8464L36.9539 45.8468L43.1557 47.2427L43.1983 47.2557C43.2499 47.2712 43.3233 47.2927 43.4151 47.3183C43.5983 47.3693 43.857 47.4366 44.1643 47.5038C44.7169 47.6248 45.4573 47.7524 46.212 47.774C46.1581 47.9273 46.067 48.1081 45.9435 48.2882C45.7928 48.508 45.6272 48.678 45.4913 48.7753C45.0979 49.0573 44.7805 49.1753 44.5877 49.2255C44.4902 49.2509 44.4215 49.2597 44.3876 49.2627L44.3751 49.2638L44.3677 49.2641L39.3042 49.2027L39.1235 51.0822L39.2928 50.1501L39.1244 51.0824L39.1747 51.0915L39.3187 51.1175C39.4433 51.1399 39.6228 51.172 39.8435 51.2107C40.2845 51.2882 40.8903 51.3926 41.549 51.5003C42.8469 51.7125 44.4112 51.9477 45.2988 52.0014C45.9118 52.0385 46.6257 51.8498 47.2896 51.6273C47.9825 51.3953 48.7651 51.074 49.5522 50.75C51.1739 50.0826 52.8252 49.4034 54.2129 49.1732C55.4126 48.974 55.8396 49.4137 55.9931 49.7143C56.2129 50.1449 56.0934 50.6236 55.9252 50.7967C55.8839 50.8391 55.7352 50.9593 55.4258 51.1606C55.1375 51.3482 54.7642 51.5718 54.3264 51.821C53.4518 52.3186 52.3539 52.8992 51.2359 53.4682C48.9775 54.6173 46.7295 55.6723 46.1066 55.9012C45.6021 56.0866 44.9787 56.1317 44.1667 56.0897C43.6871 56.065 43.2321 56.0186 42.7361 55.9679C42.3351 55.9269 41.9072 55.8834 41.4177 55.8461C39.8201 55.7247 38.6055 55.3375 37.3039 54.9226L37.1853 54.8848C35.8372 54.4554 34.3947 54.0095 32.4856 53.9324C32.0559 53.9151 31.2908 53.9417 30.6103 53.974V47.2461C31.9375 46.7695 33.9032 46.0538 34.5017 45.7801ZM37.1414 44.918L37.3145 43.9865C37.3147 43.9866 37.3145 43.9865 37.1414 44.918ZM28.7216 45.6872H25.8887V56.1051H28.7216V45.6872Z" fill="#A685FA"/>
        <defs>
            <linearGradient id="paint0_linear_89_61" x1="6.75" y1="86.5" x2="85.75" y2="-5.5" gradientUnits="userSpaceOnUse">
                <stop stop-color="#A685FA"/>
                <stop offset="0.323723" stop-color="#A685FA" stop-opacity="0"/>
            </linearGradient>
            <linearGradient id="paint1_linear_89_61" x1="81.75" y1="-10.5" x2="6.75" y2="82" gradientUnits="userSpaceOnUse">
                <stop stop-color="#A685FA"/>
                <stop offset="0.576615" stop-color="#A685FA" stop-opacity="0"/>
            </linearGradient>
            <linearGradient id="paint2_linear_89_61" x1="3.25" y1="13.5" x2="71.75" y2="72" gradientUnits="userSpaceOnUse">
                <stop stop-color="#A685FA"/>
                <stop offset="0.323723" stop-color="#A685FA" stop-opacity="0"/>
            </linearGradient>
            <linearGradient id="paint3_linear_89_61" x1="84.25" y1="86" x2="12.25" y2="35" gradientUnits="userSpaceOnUse">
                <stop stop-color="#A685FA"/>
                <stop offset="0.576615" stop-color="#A685FA" stop-opacity="0"/>
            </linearGradient>
        </defs>
    </symbol>

    <symbol xmlns="http://www.w3.org/2000/svg" width="82" height="82" fill="none" viewBox="0 0 82 82" id="fastFood">
        <rect width="81" height="81" x=".5" y=".5" stroke="url(#a)" rx="40.5"/>
        <rect width="81" height="81" x=".5" y=".5" stroke="url(#b)" rx="40.5"/>
        <rect width="61" height="61" x="10.5" y="10.5" stroke="url(#c)" rx="30.5"/>
        <rect width="61" height="61" x="10.5" y="10.5" stroke="url(#d)" rx="30.5"/>
        <path fill="#A685FA" d="M56.93 29.517c-5.508-3.645-10.715-5.448-15.916-5.515-5.267-.064-10.463 1.54-15.886 4.916a2.372 2.372 0 0 0-1.06 1.451 2.354 2.354 0 0 0 .267 1.773l14.603 24.681A2.38 2.38 0 0 0 40.998 58h.012c.415.002.824-.104 1.185-.307.361-.203.663-.496.874-.85l14.587-24.118a2.36 2.36 0 0 0 .286-1.748 2.379 2.379 0 0 0-1.012-1.46Zm-1.333 1.982L41.01 55.618 26.405 30.936c4.92-3.062 9.599-4.553 14.294-4.553l.284.001c4.723.06 9.504 1.734 14.615 5.115h-.001Z"/>
        <path fill="#A685FA" d="M38.565 38.852a2.06 2.06 0 0 0-.546-1.07 2.097 2.097 0 0 0-2.258-.498 2.08 2.08 0 0 0-.95.74 2.054 2.054 0 0 0 .865 3.075c.377.165.794.215 1.2.144a2.083 2.083 0 0 0 1.344-.849 2.052 2.052 0 0 0 .345-1.542Zm7.671 5.458a2.053 2.053 0 0 0 .225-2.91 2.093 2.093 0 0 0-2.935-.223 2.053 2.053 0 0 0-.225 2.911 2.093 2.093 0 0 0 2.935.223Zm-6.87.814-1.538 1.83 3.602 2.979 1.538-1.83-3.602-2.979Zm6.014-10.921-4.803 1.787.843 2.23 4.803-1.786-.843-2.23Z"/>
        <path fill="#A685FA" d="M30.83 35.136c2.498-1.555 6.345-3.392 10.568-3.392h.185c3.519.045 6.746 1.117 10.157 3.374l1.332-1.982c-3.814-2.523-7.455-3.722-11.458-3.774-4.882-.06-9.252 2.009-12.06 3.756l1.276 2.018Z"/>
        <defs>
            <linearGradient id="a" x1="6.75" x2="85.75" y1="86.5" y2="-5.5" gradientUnits="userSpaceOnUse">
                <stop stop-color="#A685FA"/>
                <stop offset=".324" stop-color="#A685FA" stop-opacity="0"/>
            </linearGradient>
            <linearGradient id="b" x1="81.75" x2="6.75" y1="-10.5" y2="82" gradientUnits="userSpaceOnUse">
                <stop stop-color="#A685FA"/>
                <stop offset=".577" stop-color="#A685FA" stop-opacity="0"/>
            </linearGradient>
            <linearGradient id="c" x1="3.25" x2="71.75" y1="13.5" y2="72" gradientUnits="userSpaceOnUse">
                <stop stop-color="#A685FA"/>
                <stop offset=".324" stop-color="#A685FA" stop-opacity="0"/>
            </linearGradient>
            <linearGradient id="d" x1="84.25" x2="12.25" y1="86" y2="35" gradientUnits="userSpaceOnUse">
                <stop stop-color="#A685FA"/>
                <stop offset=".577" stop-color="#A685FA" stop-opacity="0"/>
            </linearGradient>
        </defs>
    </symbol>
    <symbol width="83" height="88" viewBox="0 0 83 88" fill="none" xmlns="http://www.w3.org/2000/svg" id="gadget">
        <rect x="1.1665" y="0.5" width="81" height="87" rx="40.5" stroke="url(#paint0_linear_13_1097)"/>
        <rect x="1.1665" y="0.5" width="81" height="87" rx="40.5" stroke="url(#paint1_linear_13_1097)"/>
        <rect x="11.1665" y="10.5" width="61" height="67" rx="30.5" stroke="url(#paint2_linear_13_1097)"/>
        <rect x="11.1665" y="10.5" width="61" height="67" rx="30.5" stroke="url(#paint3_linear_13_1097)"/>
        <path d="M53.5665 24H29.7665C26.9509 24 24.6665 25.6797 24.6665 27.75V60.25C24.6665 62.3203 26.9509 64 29.7665 64H53.5665C56.3821 64 58.6665 62.3203 58.6665 60.25V27.75C58.6665 25.6797 56.3821 24 53.5665 24ZM41.6665 61.5C39.7859 61.5 38.2665 60.3828 38.2665 59C38.2665 57.6172 39.7859 56.5 41.6665 56.5C43.5471 56.5 45.0665 57.6172 45.0665 59C45.0665 60.3828 43.5471 61.5 41.6665 61.5ZM53.5665 53.0625C53.5665 53.5781 52.9928 54 52.2915 54H31.0415C30.3403 54 29.7665 53.5781 29.7665 53.0625V28.6875C29.7665 28.1719 30.3403 27.75 31.0415 27.75H52.2915C52.9928 27.75 53.5665 28.1719 53.5665 28.6875V53.0625Z" fill="#A685FA"/>
        <defs>
            <linearGradient id="paint0_linear_13_1097" x1="7.41651" y1="92.8293" x2="92.8971" y2="0.0695716" gradientUnits="userSpaceOnUse">
                <stop stop-color="#A685FA"/>
                <stop offset="0.323723" stop-color="#A685FA" stop-opacity="0"/>
            </linearGradient>
            <linearGradient id="paint1_linear_13_1097" x1="82.4165" y1="-11.2683" x2="0.941691" y2="82.366" gradientUnits="userSpaceOnUse">
                <stop stop-color="#A685FA"/>
                <stop offset="0.576615" stop-color="#A685FA" stop-opacity="0"/>
            </linearGradient>
            <linearGradient id="paint2_linear_13_1097" x1="3.9165" y1="13.8387" x2="77.663" y2="71.2622" gradientUnits="userSpaceOnUse">
                <stop stop-color="#A685FA"/>
                <stop offset="0.323723" stop-color="#A685FA" stop-opacity="0"/>
            </linearGradient>
            <linearGradient id="paint3_linear_13_1097" x1="84.9165" y1="93.3548" x2="8.61635" y2="44.0777" gradientUnits="userSpaceOnUse">
                <stop stop-color="#A685FA"/>
                <stop offset="0.576615" stop-color="#A685FA" stop-opacity="0"/>
            </linearGradient>
        </defs>
    </symbol>
    <symbol width="69" height="30" viewBox="0 0 69 30" fill="none" xmlns="http://www.w3.org/2000/svg" id="stars">
        <g clip-path="url(#clip0_13_711)">
            <path d="M15 30.0166C23.2843 30.0166 30 23.3009 30 15.0166C30 6.73237 23.2843 0.0167236 15 0.0167236C6.71573 0.0167236 0 6.73237 0 15.0166C0 23.3009 6.71573 30.0166 15 30.0166Z" fill="#666666"/>
            <path d="M0 45C8.28427 45 15 38.2843 15 30C15 21.7157 8.28427 15 0 15C-8.28427 15 -15 21.7157 -15 30C-15 38.2843 -8.28427 45 0 45Z" fill="#141414"/>
            <path d="M30 45C38.2843 45 45 38.2843 45 30C45 21.7157 38.2843 15 30 15C21.7157 15 15 21.7157 15 30C15 38.2843 21.7157 45 30 45Z" fill="#141414"/>
            <path d="M0 15C8.28427 15 15 8.28427 15 0C15 -8.28427 8.28427 -15 0 -15C-8.28427 -15 -15 -8.28427 -15 0C-15 8.28427 -8.28427 15 0 15Z" fill="#141414"/>
            <path d="M30 15C38.2843 15 45 8.28427 45 0C45 -8.28427 38.2843 -15 30 -15C21.7157 -15 15 -8.28427 15 0C15 8.28427 21.7157 15 30 15Z" fill="#141414"/>
        </g>
        <g clip-path="url(#clip1_13_711)">
            <path d="M45 24.01C49.9706 24.01 54 19.9805 54 15.01C54 10.0394 49.9706 6.01001 45 6.01001C40.0294 6.01001 36 10.0394 36 15.01C36 19.9805 40.0294 24.01 45 24.01Z" fill="#333333"/>
            <path d="M36 33C40.9706 33 45 28.9706 45 24C45 19.0294 40.9706 15 36 15C31.0294 15 27 19.0294 27 24C27 28.9706 31.0294 33 36 33Z" fill="#141414"/>
            <path d="M54 33C58.9706 33 63 28.9706 63 24C63 19.0294 58.9706 15 54 15C49.0294 15 45 19.0294 45 24C45 28.9706 49.0294 33 54 33Z" fill="#141414"/>
            <path d="M36 15C40.9706 15 45 10.9706 45 6C45 1.02944 40.9706 -3 36 -3C31.0294 -3 27 1.02944 27 6C27 10.9706 31.0294 15 36 15Z" fill="#141414"/>
            <path d="M54 15C58.9706 15 63 10.9706 63 6C63 1.02944 58.9706 -3 54 -3C49.0294 -3 45 1.02944 45 6C45 10.9706 49.0294 15 54 15Z" fill="#141414"/>
        </g>
        <g clip-path="url(#clip2_13_711)">
            <path d="M64.2 19.2048C66.5196 19.2048 68.4 17.3244 68.4 15.0048C68.4 12.6852 66.5196 10.8048 64.2 10.8048C61.8804 10.8048 60 12.6852 60 15.0048C60 17.3244 61.8804 19.2048 64.2 19.2048Z" fill="#333333"/>
            <path d="M60 23.4001C62.3196 23.4001 64.2 21.5197 64.2 19.2001C64.2 16.8805 62.3196 15.0001 60 15.0001C57.6805 15.0001 55.8 16.8805 55.8 19.2001C55.8 21.5197 57.6805 23.4001 60 23.4001Z" fill="#141414"/>
            <path d="M68.4 23.4001C70.7195 23.4001 72.6 21.5197 72.6 19.2001C72.6 16.8805 70.7195 15.0001 68.4 15.0001C66.0804 15.0001 64.2 16.8805 64.2 19.2001C64.2 21.5197 66.0804 23.4001 68.4 23.4001Z" fill="#141414"/>
            <path d="M60 15.0001C62.3196 15.0001 64.2 13.1197 64.2 10.8001C64.2 8.4805 62.3196 6.6001 60 6.6001C57.6805 6.6001 55.8 8.4805 55.8 10.8001C55.8 13.1197 57.6805 15.0001 60 15.0001Z" fill="#141414"/>
            <path d="M68.4 15.0001C70.7195 15.0001 72.6 13.1197 72.6 10.8001C72.6 8.4805 70.7195 6.6001 68.4 6.6001C66.0804 6.6001 64.2 8.4805 64.2 10.8001C64.2 13.1197 66.0804 15.0001 68.4 15.0001Z" fill="#141414"/>
        </g>
        <defs>
            <clipPath id="clip0_13_711">
                <rect width="30" height="30" fill="white"/>
            </clipPath>
            <clipPath id="clip1_13_711">
                <rect width="18" height="18" fill="white" transform="translate(36 6)"/>
            </clipPath>
            <clipPath id="clip2_13_711">
                <rect width="8.4" height="8.4" fill="white" transform="translate(60 10.8)"/>
            </clipPath>
        </defs>
    </symbol>
    <symbol width="58" height="58" viewBox="0 0 58 58" fill="none" xmlns="http://www.w3.org/2000/svg" id="slide-left">
        <rect x="0.5" y="0.5" width="57" height="57" rx="28.5" stroke="#262626"/>
        <path fill-rule="evenodd" clip-rule="evenodd" d="M39.5 29C39.5 29.6213 38.9963 30.125 38.375 30.125L22.4181 30.125L28.6547 36.0641C29.1026 36.4947 29.1166 37.2069 28.6859 37.6548C28.2553 38.1026 27.5431 38.1166 27.0953 37.6859L18.8453 29.8109C18.6247 29.5988 18.5 29.306 18.5 29C18.5 28.694 18.6247 28.4012 18.8453 28.1891L27.0953 20.3141C27.5431 19.8834 28.2553 19.8974 28.6859 20.3453C29.1166 20.7931 29.1026 21.5053 28.6547 21.9359L22.4181 27.875L38.375 27.875C38.9963 27.875 39.5 28.3787 39.5 29Z" fill="white"/>
    </symbol>
    <symbol width="58" height="58" viewBox="0 0 58 58" fill="none" xmlns="http://www.w3.org/2000/svg" id="slide-right">
        <rect x="0.5" y="0.5" width="57" height="57" rx="28.5" fill="#1A1A1A"/>
        <rect x="0.5" y="0.5" width="57" height="57" rx="28.5" stroke="#262626"/>
        <path fill-rule="evenodd" clip-rule="evenodd" d="M18.5 29C18.5 28.3787 19.0037 27.875 19.625 27.875L35.5819 27.875L29.3453 21.9359C28.8974 21.5053 28.8834 20.7931 29.3141 20.3452C29.7447 19.8974 30.4569 19.8834 30.9047 20.3141L39.1547 28.1891C39.3753 28.4012 39.5 28.694 39.5 29C39.5 29.306 39.3753 29.5988 39.1547 29.8109L30.9047 37.6859C30.4569 38.1166 29.7447 38.1026 29.3141 37.6547C28.8834 37.2069 28.8974 36.4947 29.3453 36.0641L35.5819 30.125L19.625 30.125C19.0037 30.125 18.5 29.6213 18.5 29Z" fill="white"/>
    </symbol>

    <symbol width="24" height="24" viewBox="0 0 24 24" fill="none" xmlns="http://www.w3.org/2000/svg" id="history-fuel">
        <path d="M15.75 21H0.75C0.3375 21 0 21.3375 0 21.75V23.25C0 23.6625 0.3375 24 0.75 24H15.75C16.1625 24 16.5 23.6625 16.5 23.25V21.75C16.5 21.3375 16.1625 21 15.75 21ZM23.1188 5.02969L19.3219 1.23281C19.0312 0.942187 18.5531 0.942187 18.2625 1.23281L17.7328 1.7625C17.4422 2.05312 17.4422 2.53125 17.7328 2.82188L19.5 4.58906V7.5C19.5 8.81719 20.4797 9.90469 21.75 10.0875V17.625C21.75 18.2437 21.2437 18.75 20.625 18.75C20.0063 18.75 19.5 18.2437 19.5 17.625V16.125C19.5 13.8469 17.6531 12 15.375 12H15V3C15 1.34531 13.6547 0 12 0H4.5C2.84531 0 1.5 1.34531 1.5 3V19.5H15V14.25H15.375C16.4109 14.25 17.25 15.0891 17.25 16.125V17.4281C17.25 19.1953 18.5156 20.8031 20.2734 20.9859C22.2891 21.1875 24 19.6031 24 17.625V7.15313C24 6.35625 23.6813 5.59219 23.1188 5.02969ZM12 9H4.5V3H12V9Z" fill="white"/>
    </symbol>

    <symbol width="24" height="24" viewBox="0 0 24 24" fill="none" xmlns="http://www.w3.org/2000/svg" id="car">
        <path d="M22.3602 7.56923L20.2733 2.21538C19.677 0.923077 18.6335 0 17.441 0H6.40994C5.21739 0 4.17391 0.923077 3.57764 2.21538L1.49068 7.56923C0.596273 7.75385 0 8.67692 0 9.6V16.0615C0 17.1692 0.596273 18.0923 1.49068 18.2769V21.9692C1.49068 23.0769 2.23602 24 3.13043 24H4.47205C5.21739 24 5.96273 23.0769 5.96273 21.9692V18.4615H17.8882V21.9692C17.8882 23.0769 18.6335 24 19.528 24H20.8696C21.764 24 22.5093 23.0769 22.5093 21.9692V18.2769C23.4037 18.0923 24 17.1692 24 16.0615V9.6C23.8509 8.67692 23.2547 7.75385 22.3602 7.56923ZM5.96273 11.8154C5.96273 12.3692 5.51553 12.9231 5.06832 12.9231H2.38509C1.93789 12.9231 1.49068 12.3692 1.49068 11.8154V10.3385C1.49068 9.78462 1.93789 9.23077 2.38509 9.23077H5.06832C5.51553 9.23077 5.96273 9.78462 5.96273 10.3385V11.8154ZM14.9068 16.6154H8.9441V14.7692H14.9068V16.6154ZM3.13043 7.38462L4.91925 2.95385C5.21739 2.21538 5.81366 1.84615 6.40994 1.84615H17.441C18.0373 1.84615 18.6335 2.21538 18.9317 2.95385L20.7205 7.38462H3.13043ZM22.3602 11.8154C22.3602 12.3692 21.913 12.9231 21.4658 12.9231H18.7826C18.3354 12.9231 17.8882 12.3692 17.8882 11.8154V10.3385C17.8882 9.78462 18.3354 9.23077 18.7826 9.23077H21.4658C21.913 9.23077 22.3602 9.78462 22.3602 10.3385V11.8154Z" fill="white"/>
    </symbol>

    <symbol width="24" height="24" viewBox="0 0 24 24" fill="none" xmlns="http://www.w3.org/2000/svg" id="cards">
        <path d="M21 19.36V17.6H6.9L7.8 15.84L21.6 14.4L24 4.8H5.55L4.5 0H0V1.6H3.3L6.45 15.04L4.5 19.2V21.6C4.5 22.88 5.55 24 6.75 24C7.95 24 9 22.88 9 21.6C9 20.32 7.95 19.2 6.75 19.2H18V21.6C18 22.88 19.05 24 20.25 24C21.45 24 22.5 22.88 22.5 21.6C22.5 20.48 21.9 19.68 21 19.36Z" fill="white"/>
    </symbol>

    <symbol width="24" height="24" viewBox="0 0 24 24" fill="none" xmlns="http://www.w3.org/2000/svg" id="bonus">
        <path d="M19.5 0H4.5L0 6.46154L12 24L24 6.46154L19.5 0ZM6.96 5.53846H2.625L4.905 2.25231L6.96 5.53846ZM9.63 5.53846L12 2.14154L14.37 5.53846H9.63ZM15 7.38462L12 19.7169L9 7.38462H15ZM7.89 7.38462L10.725 19.2738L2.595 7.38462H7.89ZM16.125 7.38462H21.42L13.275 19.2738L16.125 7.38462ZM17.055 5.53846L19.11 2.25231L21.375 5.53846H17.025H17.055ZM18 1.84615L15.84 5.18769L13.65 1.84615H18ZM8.145 5.22462L6 1.84615H10.35L8.145 5.22462Z" fill="white"/>
    </symbol>

    <symbol width="26" height="26" viewBox="0 0 26 26" fill="none" xmlns="http://www.w3.org/2000/svg" id="setting">
        <path fill-rule="evenodd" clip-rule="evenodd" d="M22.1149 19.9665V17.6658C22.1149 17.0961 22.3411 16.5497 22.744 16.1468L24.3709 14.5198C25.2097 13.681 25.2097 12.3208 24.3709 11.4819L22.744 9.85493C22.3411 9.45206 22.1149 8.90568 22.1149 8.33595V6.03349C22.1149 4.8471 21.1531 3.88534 19.9668 3.88534H17.6646C17.0949 3.88534 16.5485 3.659 16.1456 3.25615L14.5187 1.62917C13.6799 0.790276 12.3199 0.790276 11.481 1.62917L9.85426 3.25615C9.45143 3.659 8.90507 3.88534 8.3354 3.88534H6.03311C5.46313 3.88534 4.91653 4.1119 4.51364 4.51513C4.11076 4.91836 3.88467 5.46518 3.88513 6.03521V8.33595C3.88511 8.90568 3.6588 9.45206 3.25597 9.85493L1.62913 11.4819C0.79029 12.3208 0.79029 13.681 1.62913 14.5198L3.25597 16.1468C3.6588 16.5497 3.88511 17.0961 3.88513 17.6658V19.9665C3.88513 21.1529 4.84681 22.1147 6.03311 22.1147H8.3354C8.90507 22.1147 9.45143 22.341 9.85426 22.7439L11.481 24.3709C12.3199 25.2097 13.6799 25.2097 14.5187 24.3709L16.1456 22.7439C16.5485 22.341 17.0949 22.1147 17.6646 22.1147H19.9651C20.5351 22.1152 21.0819 21.8891 21.4851 21.486C21.8882 21.0831 22.1149 20.5366 22.1149 19.9665Z" stroke="white" stroke-width="2" stroke-linecap="round" stroke-linejoin="round"/>
        <path fill-rule="evenodd" clip-rule="evenodd" d="M12.9999 16.4297C11.1062 16.4297 9.57129 14.8946 9.57129 13.0009C9.57129 11.1071 11.1062 9.57205 12.9999 9.57205C14.8933 9.57205 16.4284 11.1071 16.4284 13.0009C16.4284 13.9102 16.0671 14.7823 15.4243 15.4254C14.7813 16.0685 13.9092 16.4297 12.9999 16.4297Z" stroke="white" stroke-width="2" stroke-linecap="round" stroke-linejoin="round"/>
    </symbol>

    <symbol width="12" height="12" viewBox="0 0 12 12" fill="none" xmlns="http://www.w3.org/2000/svg" id="plus">
        <path d="M12 5H7V0H5V5H0V7H5V12H7V7H12V5Z" fill="white"/>
    </symbol>

    <symbol width="22" height="26" viewBox="0 0 22 26" fill="none" xmlns="http://www.w3.org/2000/svg" id="check">
        <path d="M14.6667 0H0V26H22V6.5L14.6667 0ZM12.8333 8.125H20.1667V24.375H1.83333V1.625H12.8333V8.125ZM14.6667 6.5V1.625L20.1667 6.5H14.6667Z" fill="white"/>
    </symbol>

    <symbol width="26" height="28" viewBox="0 0 26 28" fill="none" xmlns="http://www.w3.org/2000/svg" id="min-sidebar">
        <path d="M13 0.7125L9.75 3.02812V0H6.5V5.34375L0 9.975L0.975 11.4L13 2.85L25.025 11.4L26 9.975L13 0.7125Z" fill="white"/>
        <path d="M13 4L1 12.7273V28H11V21.4545H15V28H25V12.7273L13 4Z" fill="white"/>
    </symbol>

    <symbol width="24" height="24" viewBox="0 0 24 24" fill="none" xmlns="http://www.w3.org/2000/svg" id="plus2">
        <path d="M12 5C15.9 5 19 8.1 19 12C19 15.9 15.9 19 12 19C8.1 19 5 15.9 5 12C5 8.1 8.1 5 12 5ZM12 4C7.6 4 4 7.6 4 12C4 16.4 7.6 20 12 20C16.4 20 20 16.4 20 12C20 7.6 16.4 4 12 4Z" fill="white"/>
        <path d="M17 11H13V7H11V11H7V13H11V17H13V13H17V11Z" fill="white"/>
    </symbol>

    <symbol width="24" height="24" viewBox="0 0 24 24" fill="none" xmlns="http://www.w3.org/2000/svg" id="glass">
        <path d="M19.7 18.3L15.5 14.1C15.3 13.9 15 13.8 14.7 13.8C15.5 12.8 16 11.4 16 10C16 6.7 13.3 4 10 4C6.7 4 4 6.7 4 10C4 13.3 6.7 16 10 16C11.4 16 12.8 15.5 13.8 14.6C13.8 14.9 13.8 15.2 14.1 15.4L18.3 19.6C18.5 19.8 18.8 19.9 19 19.9C19.2 19.9 19.5 19.8 19.7 19.6C20.1 19.3 20.1 18.7 19.7 18.3ZM10 14.5C7.5 14.5 5.5 12.5 5.5 10C5.5 7.5 7.5 5.5 10 5.5C12.5 5.5 14.5 7.5 14.5 10C14.5 12.5 12.5 14.5 10 14.5Z" fill="white"/>
    </symbol>

    <symbol width="32" height="32" viewBox="0 0 32 32" fill="none" xmlns="http://www.w3.org/2000/svg" id="sign">
        <path d="M6.57207 25.4282C8.43677 27.2929 10.8125 28.5627 13.399 29.0772C15.9854 29.5917 18.6663 29.3276 21.1026 28.3185C23.539 27.3093 25.6213 25.6003 27.0864 23.4077C28.5515 21.215 29.3335 18.6372 29.3335 16.0001C29.3335 13.363 28.5515 10.7851 27.0864 8.59248C25.6213 6.39982 23.539 4.69086 21.1026 3.68169C18.6663 2.67252 15.9854 2.40847 13.399 2.92294C10.8125 3.43741 8.43677 4.70729 6.57207 6.57199" stroke="white" stroke-width="2"/>
        <path d="M20 15.9999L20.7809 15.3752L21.2806 15.9999L20.7809 16.6246L20 15.9999ZM4 16.9999C3.44772 16.9999 3 16.5522 3 15.9999C3 15.4476 3.44772 14.9999 4 14.9999V16.9999ZM15.4475 8.70856L20.7809 15.3752L19.2191 16.6246L13.8858 9.95795L15.4475 8.70856ZM20.7809 16.6246L15.4475 23.2913L13.8858 22.0419L19.2191 15.3752L20.7809 16.6246ZM20 16.9999H4V14.9999H20V16.9999Z" fill="white"/>
    </symbol>

    <symbol width="83" height="82" viewBox="0 0 83 82" fill="none" xmlns="http://www.w3.org/2000/svg" id="mail">
        <rect x="1" y="0.5" width="81" height="81" rx="40.5" stroke="url(#paint0_linear_26_614)"/>
        <rect x="1" y="0.5" width="81" height="81" rx="40.5" stroke="url(#paint1_linear_26_614)"/>
        <rect x="11" y="10.5" width="61" height="61" rx="30.5" stroke="url(#paint2_linear_26_614)"/>
        <rect x="11" y="10.5" width="61" height="61" rx="30.5" stroke="url(#paint3_linear_26_614)"/>
        <path d="M26.625 36.2812V48.4375C26.625 50.7847 28.5278 52.6875 30.875 52.6875H52.125C54.4722 52.6875 56.375 50.7847 56.375 48.4375V36.2812L43.7274 44.0644C42.3614 44.905 40.6386 44.905 39.2726 44.0644L26.625 36.2812Z" fill="#A685FA"/>
        <path d="M56.375 33.7861V33.5625C56.375 31.2153 54.4722 29.3125 52.125 29.3125H30.875C28.5278 29.3125 26.625 31.2153 26.625 33.5625V33.7861L40.3863 42.2546C41.0693 42.6749 41.9307 42.6749 42.6137 42.2546L56.375 33.7861Z" fill="#A685FA"/>
        <defs>
            <linearGradient id="paint0_linear_26_614" x1="7.25" y1="86.5" x2="86.25" y2="-5.5" gradientUnits="userSpaceOnUse">
                <stop stop-color="#A685FA"/>
                <stop offset="0.323723" stop-color="#A685FA" stop-opacity="0"/>
            </linearGradient>
            <linearGradient id="paint1_linear_26_614" x1="82.25" y1="-10.5" x2="7.25" y2="82" gradientUnits="userSpaceOnUse">
                <stop stop-color="#A685FA"/>
                <stop offset="0.576615" stop-color="#A685FA" stop-opacity="0"/>
            </linearGradient>
            <linearGradient id="paint2_linear_26_614" x1="3.75" y1="13.5" x2="72.25" y2="72" gradientUnits="userSpaceOnUse">
                <stop stop-color="#A685FA"/>
                <stop offset="0.323723" stop-color="#A685FA" stop-opacity="0"/>
            </linearGradient>
            <linearGradient id="paint3_linear_26_614" x1="84.75" y1="86" x2="12.75" y2="35" gradientUnits="userSpaceOnUse">
                <stop stop-color="#A685FA"/>
                <stop offset="0.576615" stop-color="#A685FA" stop-opacity="0"/>
            </linearGradient>
        </defs>
    </symbol>


    <symbol width="82" height="82" viewBox="0 0 82 82" fill="none" xmlns="http://www.w3.org/2000/svg" id="tel">
        <rect x="0.5" y="0.5" width="81" height="81" rx="40.5" stroke="url(#paint0_linear_202_55)"/>
        <rect x="0.5" y="0.5" width="81" height="81" rx="40.5" stroke="url(#paint1_linear_202_55)"/>
        <rect x="10.5" y="10.5" width="61" height="61" rx="30.5" stroke="url(#paint2_linear_202_55)"/>
        <rect x="10.5" y="10.5" width="61" height="61" rx="30.5" stroke="url(#paint3_linear_202_55)"/>
        <path fill-rule="evenodd" clip-rule="evenodd" d="M26.125 30.375C26.125 28.0278 28.0278 26.125 30.375 26.125H32.3181C33.537 26.125 34.5995 26.9545 34.8951 28.137L36.4616 34.4032C36.7208 35.44 36.3334 36.5312 35.4784 37.1724L33.6458 38.5469C33.4555 38.6896 33.4141 38.8986 33.4676 39.0446C35.0762 43.4359 38.5641 46.9238 42.9554 48.5324C43.1014 48.5859 43.3104 48.5445 43.4531 48.3542L44.8276 46.5216C45.4688 45.6666 46.56 45.2792 47.5968 45.5384L53.863 47.1049C55.0455 47.4005 55.875 48.463 55.875 49.6819V51.625C55.875 53.9722 53.9722 55.875 51.625 55.875H48.4375C36.1146 55.875 26.125 45.8854 26.125 33.5625V30.375Z" fill="#A685FA"/>
        <defs>
            <linearGradient id="paint0_linear_202_55" x1="6.75" y1="86.5" x2="85.75" y2="-5.5" gradientUnits="userSpaceOnUse">
                <stop stop-color="#A685FA"/>
                <stop offset="0.323723" stop-color="#A685FA" stop-opacity="0"/>
            </linearGradient>
            <linearGradient id="paint1_linear_202_55" x1="81.75" y1="-10.5" x2="6.75" y2="82" gradientUnits="userSpaceOnUse">
                <stop stop-color="#A685FA"/>
                <stop offset="0.576615" stop-color="#A685FA" stop-opacity="0"/>
            </linearGradient>
            <linearGradient id="paint2_linear_202_55" x1="3.25" y1="13.5" x2="71.75" y2="72" gradientUnits="userSpaceOnUse">
                <stop stop-color="#A685FA"/>
                <stop offset="0.323723" stop-color="#A685FA" stop-opacity="0"/>
            </linearGradient>
            <linearGradient id="paint3_linear_202_55" x1="84.25" y1="86" x2="12.25" y2="35" gradientUnits="userSpaceOnUse">
                <stop stop-color="#A685FA"/>
                <stop offset="0.576615" stop-color="#A685FA" stop-opacity="0"/>
            </linearGradient>
        </defs>
    </symbol>


    <symbol width="83" height="82" viewBox="0 0 83 82" fill="none" xmlns="http://www.w3.org/2000/svg" id="geo">
        <rect x="1" y="0.5" width="81" height="81" rx="40.5" stroke="url(#paint0_linear_26_630)"/>
        <rect x="1" y="0.5" width="81" height="81" rx="40.5" stroke="url(#paint1_linear_26_630)"/>
        <rect x="11" y="10.5" width="61" height="61" rx="30.5" stroke="url(#paint2_linear_26_630)"/>
        <rect x="11" y="10.5" width="61" height="61" rx="30.5" stroke="url(#paint3_linear_26_630)"/>
        <path fill-rule="evenodd" clip-rule="evenodd" d="M40.848 55.664C40.8908 55.6888 40.9244 55.7079 40.9482 55.7213L40.9878 55.7434C41.3035 55.9167 41.6952 55.9154 42.0112 55.7439L42.0518 55.7213C42.0756 55.7079 42.1092 55.6888 42.152 55.664C42.2376 55.6144 42.3599 55.5421 42.5136 55.4474C42.821 55.2582 43.2549 54.9791 43.7732 54.6129C44.808 53.8819 46.1888 52.7972 47.5726 51.3804C50.3268 48.5605 53.1875 44.3237 53.1875 38.875C53.1875 32.4202 47.9548 27.1875 41.5 27.1875C35.0452 27.1875 29.8125 32.4202 29.8125 38.875C29.8125 44.3237 32.6732 48.5605 35.4274 51.3804C36.8112 52.7972 38.192 53.8819 39.2268 54.6129C39.7451 54.9791 40.179 55.2582 40.4864 55.4474C40.6401 55.5421 40.7624 55.6144 40.848 55.664ZM41.5 43.125C43.8472 43.125 45.75 41.2222 45.75 38.875C45.75 36.5278 43.8472 34.625 41.5 34.625C39.1528 34.625 37.25 36.5278 37.25 38.875C37.25 41.2222 39.1528 43.125 41.5 43.125Z" fill="#A685FA"/>
        <defs>
            <linearGradient id="paint0_linear_26_630" x1="7.25" y1="86.5" x2="86.25" y2="-5.5" gradientUnits="userSpaceOnUse">
                <stop stop-color="#A685FA"/>
                <stop offset="0.323723" stop-color="#A685FA" stop-opacity="0"/>
            </linearGradient>
            <linearGradient id="paint1_linear_26_630" x1="82.25" y1="-10.5" x2="7.25" y2="82" gradientUnits="userSpaceOnUse">
                <stop stop-color="#A685FA"/>
                <stop offset="0.576615" stop-color="#A685FA" stop-opacity="0"/>
            </linearGradient>
            <linearGradient id="paint2_linear_26_630" x1="3.75" y1="13.5" x2="72.25" y2="72" gradientUnits="userSpaceOnUse">
                <stop stop-color="#A685FA"/>
                <stop offset="0.323723" stop-color="#A685FA" stop-opacity="0"/>
            </linearGradient>
            <linearGradient id="paint3_linear_26_630" x1="84.75" y1="86" x2="12.75" y2="35" gradientUnits="userSpaceOnUse">
                <stop stop-color="#A685FA"/>
                <stop offset="0.576615" stop-color="#A685FA" stop-opacity="0"/>
            </linearGradient>
        </defs>
    </symbol>

    <symbol width="83" height="82" viewBox="0 0 83 82" fill="none" xmlns="http://www.w3.org/2000/svg" id="social">
        <rect x="1" y="0.5" width="81" height="81" rx="40.5" stroke="url(#paint0_linear_26_638)"/>
        <rect x="1" y="0.5" width="81" height="81" rx="40.5" stroke="url(#paint1_linear_26_638)"/>
        <rect x="11" y="10.5" width="61" height="61" rx="30.5" stroke="url(#paint2_linear_26_638)"/>
        <rect x="11" y="10.5" width="61" height="61" rx="30.5" stroke="url(#paint3_linear_26_638)"/>
        <path d="M41.5 55C33.7689 55 27.5 48.7311 27.5 41H41.5V55Z" fill="#A685FA"/>
        <path d="M27.5 27C35.2311 27 41.5 33.2689 41.5 41H27.5V27Z" fill="#A685FA"/>
        <path d="M41.5 55C49.2311 55 55.5 48.7311 55.5 41H41.5V55Z" fill="#A685FA"/>
        <path d="M55.5 41C55.5 33.2689 49.2311 27 41.5 27V41H55.5Z" fill="#A685FA"/>
        <defs>
            <linearGradient id="paint0_linear_26_638" x1="7.25" y1="86.5" x2="86.25" y2="-5.5" gradientUnits="userSpaceOnUse">
                <stop stop-color="#A685FA"/>
                <stop offset="0.323723" stop-color="#A685FA" stop-opacity="0"/>
            </linearGradient>
            <linearGradient id="paint1_linear_26_638" x1="82.25" y1="-10.5" x2="7.25" y2="82" gradientUnits="userSpaceOnUse">
                <stop stop-color="#A685FA"/>
                <stop offset="0.576615" stop-color="#A685FA" stop-opacity="0"/>
            </linearGradient>
            <linearGradient id="paint2_linear_26_638" x1="3.75" y1="13.5" x2="72.25" y2="72" gradientUnits="userSpaceOnUse">
                <stop stop-color="#A685FA"/>
                <stop offset="0.323723" stop-color="#A685FA" stop-opacity="0"/>
            </linearGradient>
            <linearGradient id="paint3_linear_26_638" x1="84.75" y1="86" x2="12.75" y2="35" gradientUnits="userSpaceOnUse">
                <stop stop-color="#A685FA"/>
                <stop offset="0.576615" stop-color="#A685FA" stop-opacity="0"/>
            </linearGradient>
        </defs>
    </symbol>

    <symbol width="34" height="34" viewBox="0 0 34 34" fill="none" xmlns="http://www.w3.org/2000/svg" id="social-arrow">
        <path d="M6.375 27.625L27.625 6.375M27.625 6.375L11.6875 6.375M27.625 6.375V22.3125" stroke="#4D4D4D" stroke-width="2" stroke-linecap="round" stroke-linejoin="round"/>
    </symbol>

    <symbol width="24" height="24" viewBox="0 0 24 24" fill="none" xmlns="http://www.w3.org/2000/svg" id="mail-btn">
        <path d="M1.5 8.6691V17.25C1.5 18.9069 2.84315 20.25 4.5 20.25H19.5C21.1569 20.25 22.5 18.9069 22.5 17.25V8.6691L13.5723 14.1631C12.6081 14.7564 11.3919 14.7564 10.4277 14.1631L1.5 8.6691Z" fill="white"/>
        <path d="M22.5 6.90783V6.75C22.5 5.09315 21.1569 3.75 19.5 3.75H4.5C2.84315 3.75 1.5 5.09315 1.5 6.75V6.90783L11.2139 12.8856C11.696 13.1823 12.304 13.1823 12.7861 12.8856L22.5 6.90783Z" fill="white"/>
    </symbol>

    <symbol width="24" height="24" viewBox="0 0 24 24" fill="none" xmlns="http://www.w3.org/2000/svg" id="phone-btn">
        <path fill-rule="evenodd" clip-rule="evenodd" d="M1.5 4.5C1.5 2.84315 2.84315 1.5 4.5 1.5H5.87163C6.732 1.5 7.48197 2.08556 7.69064 2.92025L8.79644 7.34343C8.97941 8.0753 8.70594 8.84555 8.10242 9.29818L6.8088 10.2684C6.67447 10.3691 6.64527 10.5167 6.683 10.6197C7.81851 13.7195 10.2805 16.1815 13.3803 17.317C13.4833 17.3547 13.6309 17.3255 13.7316 17.1912L14.7018 15.8976C15.1545 15.2941 15.9247 15.0206 16.6566 15.2036L21.0798 16.3094C21.9144 16.518 22.5 17.268 22.5 18.1284V19.5C22.5 21.1569 21.1569 22.5 19.5 22.5H17.25C8.55151 22.5 1.5 15.4485 1.5 6.75V4.5Z" fill="white"/>
    </symbol>

    <symbol width="99" height="99" viewBox="0 0 99 99" fill="none" xmlns="http://www.w3.org/2000/svg" id="svg-fuel">
        <circle cx="49.5" cy="49.5" r="49.5" fill="black"/>
        <path fill-rule="evenodd" clip-rule="evenodd" d="M49.916 25L64.7031 39.9364C72.8263 48.1908 72.8749 61.5549 64.7031 69.8092C56.5313 78.0636 43.3007 78.0636 35.1289 69.8092C26.957 61.5549 26.957 48.1908 35.1289 39.9364L49.916 25ZM61.4558 61.7275L60.1839 59.524C60.035 59.266 59.8023 59.0667 59.5246 58.9591C59.2468 58.8514 58.9406 58.8419 58.6567 58.9322L56.2555 59.6965C55.955 59.4757 55.6428 59.2706 55.3201 59.0837C54.9739 58.8812 54.6159 58.6996 54.2501 58.5376L53.7119 56.0776C53.6484 55.7866 53.4874 55.5259 53.2555 55.3389C53.0235 55.1519 52.7347 55.0498 52.4368 55.0495H47.6814C47.3834 55.0498 47.0946 55.1519 46.8627 55.3389C46.6308 55.5259 46.4697 55.7866 46.4063 56.0776L45.8733 58.5363C45.5257 58.6866 45.1861 58.8551 44.8555 59.0406C44.5133 59.2392 44.1814 59.4587 43.8627 59.6938L41.4627 58.9296C41.1787 58.839 40.8722 58.8483 40.5941 58.956C40.3161 59.0636 40.0832 59.2631 39.9342 59.5214L38.5272 61.959C35.7687 56.9388 36.5006 50.4987 40.7227 46.2746L49.9646 36.9393L59.2066 46.2746C63.2849 50.434 64.0434 56.7423 61.4558 61.7275ZM55.2558 67.6161C55.1407 66.4128 54.611 65.2807 53.749 64.4186C52.769 63.4386 51.4398 62.8881 50.0538 62.8881C48.6679 62.8881 47.3387 63.4386 46.3587 64.4186C45.471 65.3063 44.9357 66.4804 44.8427 67.7237C48.1588 69.1473 51.9495 69.1115 55.2558 67.6161Z" fill="#7879F1"/>
    </symbol>

    <symbol width="24" height="23" viewBox="0 0 24 23" fill="none" xmlns="http://www.w3.org/2000/svg" id="purchase-history">
        <path d="M21 18.5533V16.8667H6.9L7.8 15.18L21.6 13.8L24 4.6H5.55L4.5 0H0V1.53333H3.3L6.45 14.4133L4.5 18.4V20.7C4.5 21.9267 5.55 23 6.75 23C7.95 23 9 21.9267 9 20.7C9 19.4733 7.95 18.4 6.75 18.4H18V20.7C18 21.9267 19.05 23 20.25 23C21.45 23 22.5 21.9267 22.5 20.7C22.5 19.6267 21.9 18.86 21 18.5533V18.5533ZM6 6.13333H22.05L20.4 12.2667L7.8 13.6467L6 6.13333V6.13333Z" fill="white"/>
    </symbol>

    <symbol width="22" height="24" viewBox="0 0 22 24" fill="none" xmlns="http://www.w3.org/2000/svg" id="logaut">
        <path d="M20.4286 9H17.7571C17.4429 9 17.1286 8.85 16.8143 8.7L14.7714 6.75C14.4571 6.3 13.8286 6 13.0429 6H12.5714C14.3 6 15.7143 4.65 15.7143 3C15.7143 1.35 14.3 0 12.5714 0C10.8429 0 9.42857 1.35 9.42857 3C9.42857 4.05 10.0571 5.1 11 5.55L10.6857 6H7.54286C5.81429 6 3.92857 6.75 2.82857 8.25L1.88571 9.45C1.25714 10.05 1.57143 10.95 2.2 11.4C2.82857 11.7 3.61429 11.55 4.08571 10.95L4.87143 9.9C5.34286 9.3 5.97143 9 6.75714 9H8.01429L6.91429 11.4C6.44286 12.3 6.28571 13.2 6.28571 14.25V17.25C6.28571 17.7 5.97143 18 5.5 18H1.57143C0.628571 18 0 18.6 0 19.5C0 20.4 0.628571 21 1.57143 21H7.07143C8.32857 21 9.42857 19.95 9.42857 18.75V15L15.4 21.75C16.3429 23.1 18.0714 24 19.8 24H21.2143L12.7286 13.95C12.2571 13.35 12.4143 12.75 12.7286 12L13.6714 9.75L14.7714 10.95C15.4 11.55 16.3429 12 17.2857 12H20.4286C21.3714 12 22 11.4 22 10.5C22 9.6 21.3714 9 20.4286 9V9Z" fill="white"/>
    </symbol>

    <symbol width="60" height="60" viewBox="0 0 60 60" fill="none" xmlns="http://www.w3.org/2000/svg" id="customer-icon">
        <path d="M30.219 0C5.69343 0 17.5182 27.375 17.5182 27.375C20.146 31.125 23.6496 30.375 23.6496 33C23.6496 35.25 20.5839 36 17.5182 36.375C12.7007 36.375 8.32117 35.625 3.94161 42.375C1.31387 46.5 0 60 0 60H60C60 60 58.6861 46.5 56.4963 42.375C52.1168 35.25 47.7372 36.375 42.9197 36C39.854 35.625 36.7883 34.875 36.7883 32.625C36.7883 30.375 40.292 31.125 42.9197 27C42.9197 27.375 54.7445 0 30.219 0V0Z" fill="white"/>
    </symbol>

    <symbol width="24" height="24" viewBox="0 0 24 24" fill="none" xmlns="http://www.w3.org/2000/svg" id="pencil-icon">
        <path d="M1.50343 17.8359L0 24L6.16405 22.4965L19.9956 8.66485L15.335 4.00417L1.50343 17.8359ZM2.25514 22.4965L1.65377 21.7448L2.25514 18.7379L5.262 21.7448L2.25514 22.4965ZM16.3874 6.56002L4.2096 18.5876L3.30754 17.6855L15.4853 5.65796L16.3874 6.56002Z" fill="white"/>
        <path d="M23.0029 0.997276C21.3492 -0.656514 19.094 0.245553 19.094 0.245553L16.8389 2.50072L21.4995 7.1614L23.7546 4.90623C23.7546 4.75589 24.6567 2.65107 23.0029 0.997276V0.997276ZM20.1464 2.35038L19.3947 1.59865C20.2968 0.696587 21.0485 1.44831 21.0485 1.44831L20.1464 2.35038Z" fill="white"/>
    </symbol>

    <symbol width="24" height="19" viewBox="0 0 24 19" fill="none" xmlns="http://www.w3.org/2000/svg" id="arrow-left">
        <path d="M12.9 2.25424L18.15 7.88983H0V11.1102H18.15L12.9 16.7458L15 19L24 9.5L15 0L12.9 2.25424Z" fill="white"/>
    </symbol>



</svg>
